<svg width="1200" height="630" viewBox="0 0 1200 630" fill="none" xmlns="http://www.w3.org/2000/svg">
  <!-- Background gradient -->
  <defs>
    <linearGradient id="bgGradient" x1="0%" y1="0%" x2="100%" y2="100%">
      <stop offset="0%" style="stop-color:#0052FF;stop-opacity:1" />
      <stop offset="50%" style="stop-color:#7C3AED;stop-opacity:1" />
      <stop offset="100%" style="stop-color:#EC4899;stop-opacity:1" />
    </linearGradient>
  </defs>

  <!-- Background -->
  <rect width="1200" height="630" fill="url(#bgGradient)"/>

  <!-- Pattern overlay -->
  <pattern id="pattern" x="0" y="0" width="60" height="60" patternUnits="userSpaceOnUse">
    <circle cx="30" cy="30" r="1.5" fill="#ffffff" opacity="0.1"/>
  </pattern>
  <rect width="1200" height="630" fill="url(#pattern)"/>

  <!-- Logo -->
  <g transform="translate(100, 100)">
    <circle cx="60" cy="60" r="55" fill="#ffffff" opacity="0.9"/>
    <circle cx="60" cy="60" r="25" fill="url(#bgGradient)"/>
    <path d="M60 35 L70 45 L60 55 L50 45 Z" fill="#ffffff"/>
    <circle cx="60" cy="45" r="8" fill="#ffffff"/>
    <circle cx="52" cy="52" r="8" fill="#ffffff"/>
    <circle cx="68" cy="52" r="8" fill="#ffffff"/>
    <circle cx="60" cy="60" r="8" fill="#ffffff"/>
  </g>

  <!-- Main title -->
  <text x="300" y="200" font-family="Arial, sans-serif" font-size="48" font-weight="bold" fill="#ffffff">
    Know the Score
  </text>

  <!-- Subtitle -->
  <text x="300" y="250" font-family="Arial, sans-serif" font-size="24" fill="#ffffff" opacity="0.9">
    Predicciones Deportivas Farcaster-Native
  </text>

  <!-- Description -->
  <text x="300" y="300" font-family="Arial, sans-serif" font-size="18" fill="#ffffff" opacity="0.8">
    Predice resultados de fútbol, desafía a tus amigos
  </text>
  <text x="300" y="330" font-family="Arial, sans-serif" font-size="18" fill="#ffffff" opacity="0.8">
    y gana crypto directamente desde tu feed social
  </text>

  <!-- Features -->
  <g transform="translate(300, 400)">
    <circle cx="15" cy="15" r="8" fill="#ffffff" opacity="0.9"/>
    <text x="35" y="20" font-family="Arial, sans-serif" font-size="16" fill="#ffffff">
      Pozos Públicos On-Chain
    </text>

    <circle cx="15" cy="50" r="8" fill="#ffffff" opacity="0.9"/>
    <text x="35" y="55" font-family="Arial, sans-serif" font-size="16" fill="#ffffff">
      Retos 1 vs 1 con Amigos
    </text>

    <circle cx="15" cy="85" r="8" fill="#ffffff" opacity="0.9"/>
    <text x="35" y="90" font-family="Arial, sans-serif" font-size="16" fill="#ffffff">
      Sistema de Rachas y NFT Badges
    </text>
  </g>

  <!-- CTA -->
  <g transform="translate(300, 520)">
    <rect x="0" y="0" width="200" height="50" rx="25" fill="#ffffff"/>
    <text x="100" y="32" font-family="Arial, sans-serif" font-size="18" font-weight="bold" fill="url(#bgGradient)" text-anchor="middle">
      🚀 Conectar Wallet
    </text>
  </g>

  <!-- Farcaster logo -->
  <g transform="translate(1000, 50)">
    <circle cx="20" cy="20" r="18" fill="#7C3AED"/>
    <text x="20" y="26" font-family="Arial, sans-serif" font-size="14" fill="#ffffff" text-anchor="middle" font-weight="bold">
      FC
    </text>
  </g>
</svg>
